<svg height="156.36001" version="1.1" width="170.578125" xmlns="http://www.w3.org/2000/svg" xmlns:xlink="http://www.w3.org/1999/xlink" style="overflow: hidden; position: relative; left: -0.5px; top: -0.796875px;" viewBox="217.2109375 110.06189 170.578125 156.36001" preserveAspectRatio="xMinYMin" id="main_svg"><desc style="-webkit-tap-highlight-color: rgba(0, 0, 0, 0);">Created with Logotizer</desc><defs style="-webkit-tap-highlight-color: rgba(0, 0, 0, 0);"><linearGradient id="gradient_et8y57j523u814dzyc89ws" x1="1.8369701987210297e-16" y1="0" x2="0" y2="1" style="-webkit-tap-highlight-color: rgba(0, 0, 0, 0);"><stop offset="44%" stop-color="#333333" stop-opacity="1" style="-webkit-tap-highlight-color: rgba(0, 0, 0, 0);"></stop><stop offset="91%" stop-color="#000000" stop-opacity="1" style="-webkit-tap-highlight-color: rgba(0, 0, 0, 0);"></stop></linearGradient><linearGradient id="gradient_2c3u6wfrt4o1dia6x6f1ad" x1="1.8369701987210297e-16" y1="0" x2="0" y2="1" style="-webkit-tap-highlight-color: rgba(0, 0, 0, 0);"><stop offset="10%" stop-color="#2cff70" stop-opacity="1" style="-webkit-tap-highlight-color: rgba(0, 0, 0, 0);"></stop><stop offset="80%" stop-color="#318cb3" stop-opacity="1" style="-webkit-tap-highlight-color: rgba(0, 0, 0, 0);"></stop></linearGradient><linearGradient id="gradient_wvt9we4mfkkomfuw51lciq" x1="1.8369701987210297e-16" y1="0" x2="0" y2="1" style="-webkit-tap-highlight-color: rgba(0, 0, 0, 0);"><stop offset="44%" stop-color="#333333" stop-opacity="1" style="-webkit-tap-highlight-color: rgba(0, 0, 0, 0);"></stop><stop offset="91%" stop-color="#000000" stop-opacity="1" style="-webkit-tap-highlight-color: rgba(0, 0, 0, 0);"></stop></linearGradient></defs><path fill="url(#gradient_wvt9we4mfkkomfuw51lciq)" stroke="none" d="M-81.77,-2.3L-81.77,-31.55Q-81.77,-32.51,-81.09,-33.18Q-80.41,-33.84,-79.48,-33.84L-71.37,-33.84Q-69.12,-33.84,-67.29,-33.11Q-65.46,-32.37,-64.34,-31.14Q-63.21,-29.91,-62.61,-28.36Q-62.02,-26.81,-62.02,-25.1Q-62.02,-22.22,-63.62,-20.44Q-65.23,-18.66,-68.2,-17.41Q-66.98,-17.04,-66.2,-16.73Q-65.41,-16.43,-64.35,-15.79Q-63.28,-15.14,-62.65,-14.38Q-62.02,-13.62,-61.56,-12.39Q-61.1,-11.16,-61.1,-9.61Q-61.1,-5.46,-63.95,-2.73Q-66.8,0,-71.55,0L-79.48,0Q-80.44,0,-81.11,-0.68Q-81.77,-1.36,-81.77,-2.3M-77.95,-3.75L-72.09,-3.75Q-68.6,-3.75,-66.77,-5.32Q-64.95,-6.89,-64.95,-9.56Q-64.95,-12.47,-66.98,-14.09Q-69.02,-15.7,-72.28,-15.7L-77.95,-15.7L-77.95,-3.75M-77.95,-19.43L-72.42,-19.43Q-70.78,-19.43,-69.33,-20.03Q-67.88,-20.63,-66.87,-21.96Q-65.86,-23.3,-65.86,-25.15Q-65.86,-27.3,-67.23,-28.7Q-68.6,-30.09,-71.6,-30.09L-77.95,-30.09L-77.95,-19.43ZM-55.71,-4.52L-55.71,-32.93Q-55.71,-33.7,-55.17,-34.25Q-54.63,-34.8,-53.86,-34.8Q-53.06,-34.8,-52.52,-34.27Q-51.98,-33.73,-51.98,-32.93L-51.98,-4.52Q-51.98,-3.66,-51.86,-3.16Q-51.73,-2.67,-51.3,-2.25Q-50.98,-1.8,-50.98,-1.34Q-50.98,-0.61,-51.47,-0.12Q-51.96,0.38,-52.69,0.38Q-55.71,0.38,-55.71,-4.52ZM-46.2,-8.16L-46.2,-16.17Q-46.2,-19.92,-43.83,-22.32Q-41.46,-24.73,-37.22,-24.73Q-32.98,-24.73,-30.61,-22.32Q-28.24,-19.92,-28.24,-16.17L-28.24,-8.16Q-28.24,-4.41,-30.6,-2.02Q-32.95,0.38,-37.22,0.38Q-41.48,0.38,-43.84,-2.02Q-46.2,-4.41,-46.2,-8.16M-42.45,-8.16Q-42.45,-5.74,-41.11,-4.41Q-39.77,-3.07,-37.22,-3.07Q-34.66,-3.07,-33.33,-4.41Q-31.99,-5.74,-31.99,-8.16L-31.99,-16.22Q-31.99,-18.59,-33.33,-19.92Q-34.66,-21.26,-37.22,-21.26Q-39.77,-21.26,-41.11,-19.92Q-42.45,-18.59,-42.45,-16.22L-42.45,-8.16ZM-23.93,-8.44L-23.93,-15.7Q-23.93,-19.64,-21.77,-22.09Q-19.62,-24.54,-15.33,-24.54Q-14.39,-24.54,-13.32,-24.39Q-12.26,-24.23,-11.17,-23.92Q-10.08,-23.6,-9.38,-23Q-8.67,-22.41,-8.67,-21.61Q-8.67,-20.95,-9.14,-20.46Q-9.61,-19.97,-10.29,-19.97Q-10.64,-19.97,-11.06,-20.11Q-11.79,-20.48,-12.23,-20.67Q-12.68,-20.86,-13.42,-21.04Q-14.16,-21.21,-14.95,-21.21Q-17.7,-21.21,-18.94,-19.82Q-20.18,-18.42,-20.18,-15.7L-20.18,-8.44Q-20.18,-5.72,-18.94,-4.32Q-17.7,-2.93,-14.95,-2.93Q-14.16,-2.93,-13.42,-3.11Q-12.68,-3.28,-12.23,-3.47Q-11.79,-3.66,-11.06,-4.03Q-10.64,-4.17,-10.29,-4.17Q-9.61,-4.17,-9.14,-3.69Q-8.67,-3.21,-8.67,-2.55Q-8.67,-1.76,-9.38,-1.16Q-10.08,-0.56,-11.17,-0.25Q-12.26,0.07,-13.32,0.22Q-14.39,0.38,-15.33,0.38Q-19.62,0.38,-21.77,-2.06Q-23.93,-4.5,-23.93,-8.44ZM-3.68,-1.48L-3.68,-32.93Q-3.68,-33.73,-3.15,-34.27Q-2.63,-34.8,-1.83,-34.8Q-1.03,-34.8,-0.49,-34.27Q0.05,-33.73,0.05,-32.93L0.05,-15.02L8.74,-24.05Q9.09,-24.47,9.89,-24.47Q10.64,-24.47,11.16,-23.98Q11.67,-23.48,11.67,-22.76Q11.67,-22.01,11.18,-21.52L4.13,-14.3L12.23,-2.3Q12.54,-1.85,12.54,-1.2Q12.52,-0.49,12,-0.06Q11.48,0.38,10.76,0.38Q9.75,0.38,9.21,-0.54L1.78,-11.86L0.05,-10.08L0.05,-1.48Q0.05,-0.68,-0.49,-0.15Q-1.03,0.38,-1.83,0.38Q-2.63,0.38,-3.15,-0.15Q-3.68,-0.68,-3.68,-1.48ZM15.02,-1.43Q15.02,-1.88,15.12,-2.16L24.49,-31.78Q25.24,-34.31,26.98,-34.31Q27.98,-34.31,28.56,-33.67Q29.13,-33.02,29.53,-31.78L38.88,-2.16Q38.98,-1.88,38.98,-1.43Q38.98,-0.59,38.4,-0.06Q37.83,0.47,36.96,0.47Q36.38,0.47,35.81,0.07Q35.25,-0.33,35.09,-0.96L33.02,-7.64L20.88,-7.64L18.87,-0.96Q18.66,-0.33,18.12,0.07Q17.58,0.47,17.04,0.47Q16.2,0.47,15.61,-0.06Q15.02,-0.59,15.02,-1.43M22.03,-11.37L31.92,-11.37L26.98,-27.66L22.03,-11.37ZM42.09,-8.7L42.09,-14.79Q42.09,-17.02,42.5,-18.73Q42.91,-20.44,43.82,-21.76Q44.72,-23.09,46.3,-23.78Q47.88,-24.47,50.11,-24.47Q52.83,-24.47,55.45,-23.58L55.45,-32.98Q55.45,-33.77,55.95,-34.29Q56.44,-34.8,57.3,-34.8Q58.17,-34.8,58.68,-34.28Q59.18,-33.75,59.18,-32.98L59.18,-5.46Q59.18,-4.43,59.45,-3.79Q59.72,-3.14,60.42,-2.6Q60.77,-2.06,60.77,-1.64Q60.77,-0.91,60.26,-0.43Q59.74,0.05,59.09,0.05Q57.54,0.05,56.55,-1.48Q52.85,0.38,49.73,0.38Q46.05,0.38,44.07,-2.09Q42.09,-4.55,42.09,-8.7M45.84,-8.7Q45.84,-2.98,50.51,-2.98Q52.92,-2.98,55.55,-4.36Q55.45,-4.73,55.45,-5.46L55.45,-20.2Q54.33,-20.67,52.95,-20.94Q51.56,-21.21,50.6,-21.21Q48,-21.21,46.92,-19.7Q45.84,-18.19,45.84,-14.79L45.84,-8.7ZM64.64,-6.87L64.64,-7.05Q64.64,-14.16,73.1,-14.16Q75.56,-14.16,77.93,-13.48L77.93,-16.22Q77.93,-18.84,76.66,-20.1Q75.4,-21.35,72.8,-21.35Q71.65,-21.35,70.88,-21.11Q70.1,-20.86,69.16,-20.34Q69.14,-20.34,68.99,-20.27Q68.84,-20.2,68.68,-20.14Q68.53,-20.09,68.31,-20.03Q68.09,-19.97,67.9,-19.97Q67.27,-19.97,66.94,-20.45Q66.61,-20.93,66.56,-21.56Q66.56,-21.66,66.56,-21.73Q66.56,-22.41,67.05,-22.97Q67.62,-23.58,68.61,-23.94Q69.61,-24.3,70.8,-24.49Q72,-24.68,73.29,-24.68Q77.7,-24.68,79.69,-22.27Q81.68,-19.85,81.68,-14.98L81.68,-4.41Q81.68,-2.98,82.55,-2.98Q82.62,-2.98,82.72,-3Q82.83,-3.02,82.92,-3.02Q83.58,-3.02,83.95,-2.53Q84.33,-2.04,84.33,-1.38Q84.33,-0.56,83.7,-0.16Q83.06,0.23,82.17,0.23Q81,0.23,80.06,-0.4Q79.13,-1.03,78.56,-2.16Q75.82,0.38,72,0.38Q68.39,0.38,66.52,-1.58Q64.64,-3.54,64.64,-6.87M68.34,-6.82Q68.34,-2.98,72.56,-2.98Q75.45,-2.98,77.93,-5.09L77.93,-10.27Q75.47,-10.99,73.05,-10.99Q70.34,-10.99,69.34,-9.94Q68.34,-8.88,68.34,-7.01L68.34,-6.82Z" opacity="1" fill-opacity="1" transform="matrix(1,0,0,1,302.5,253.9219)" style="-webkit-tap-highlight-color: rgba(0, 0, 0, 0); opacity: 1; fill-opacity: 1;" stroke-width="1"></path><path fill="url(#gradient_2c3u6wfrt4o1dia6x6f1ad)" stroke="none" d="M80.445,35.06183V35.06189A5,5,0,0,0,85.445,40.06189H149.3064A80.14326,80.14326,0,0,0,142.47791,30.06189H85.445A5,5,0,0,0,80.445,35.06183ZM80.445,114.9519A5,5,0,0,0,85.445,119.9519H149.29845A79.63123,79.63123,0,0,0,154.18151,109.9519H85.445A5,5,0,0,0,80.445,114.9519ZM66.7392,55.03436A5,5,0,0,0,71.7392,60.03436H157.48774A79.31707,79.31707,0,0,0,154.17609,50.03436H71.7392A5,5,0,0,0,66.7392,55.03436ZM66.7392,94.97937A5,5,0,0,0,71.7392,99.97937H157.48456A79.72262,79.72262,0,0,0,159.35827999999998,89.97937H71.7392A5,5,0,0,0,66.7392,94.97937ZM160,80.007V80V80.007M49.93127,75.0069A5,5,0,0,0,54.93127,80.0069H159.99982L160,80A80.64959,80.64959,0,0,0,159.35651,70.0069H54.93127A5,5,0,0,0,49.93127,75.0069Z" stroke-width="0" opacity="1" fill-opacity="1" stroke-opacity="1" transform="matrix(1,0,0,1,223,80)" style="-webkit-tap-highlight-color: rgba(0, 0, 0, 0); opacity: 1; fill-opacity: 1;"></path></svg>